<svg xmlns="http://www.w3.org/2000/svg" width="394" height="80" viewBox="0 0 394 80"><path fill="#000" d="M262 0h68.5v12.7h-27.2v66.6h-13.6V12.7H262V0ZM149 0v12.7H94v20.4h44.3v12.6H94v21.2h55v12.6H80.5V0h68.5ZM43.2 0L0 79.2h13.7l8.1-16.3h28.3l8.2 16.3H72L28.8 0h-14.4Zm-5.2 50.1l8.8-18.8 8.9 18.8H38Zm133.3-50.1l-36.6 79.2h14.6l3.2-8.5h37.8l3.2 8.5h14.6L171.3 0h-14.4Zm8.3 58l10.3-27.7 10.3 27.7h-20.6Zm189.9 5.6L384 0h-13.8l-12 47.7L346.5 0h-19.1l-11.5 47.8L304.2 0h-13.9l14.1 63.6L293.1 79.2H314l8.1-38.3 8.3 38.3h19.6l8.3-38.3 8.1 38.3h20.9L369.5 63.6Z"/></svg>